#format: frame checksums
#version: 2
#hash: MD5
#tb 0: 1/48000
#media_type 0: audio
#codec_id 0: pcm_s16le
#sample_rate 0: 48000
#channel_layout_name 0: stereo
#stream#, dts,        pts, duration,     size, hash
0,          0,          0,      240,      960, a608f135b468c017a806beea948129d4
0,        240,        240,      240,      960, 01327ff3749133ec66e5791e363eaf9a
0,        480,        480,      240,      960, eb9eb3c9e24d98f9e2a0dc1b3b51f186
0,        720,        720,      240,      960, d6134c0d42da94a5ae8b17d04da87576
0,        960,        960,      240,      960, b9404550253c0b89e45406e2fceb127f
0,       1200,       1200,      240,      960, 338a85b6aafb20fa4719f854f746f6c7
0,       1440,       1440,      240,      960, ef914b8d3673c469ebbf6939eaf617ec
0,       1680,       1680,      240,      960, 6fca71e53ab2dee4f3bd0b00665e0ab0
0,       1920,       1920,      240,      960, 78e317847ad4433917dfaebca93dd480
0,       2160,       2160,      240,      960, 9709e5fc5daf3d077c1100d807d40db2
0,       2400,       2400,      240,      960, ea5ee6427e6eb65586823c12f50c37dc
0,       2640,       2640,      240,      960, 55201374844d8b1a2ae1576c6ce6d972
0,       2880,       2880,      240,      960, 82d56c4552e57b6c31f29f9822e5c87f
0,       3120,       3120,      240,      960, e15916da2b88f37cb344adfbdb31bf95
0,       3360,       3360,      240,      960, 4ee70f4a8f3e98a696314313276d05bc
0,       3600,       3600,      240,      960, 3b268e1e32c5a63a97be88c6337991ec
0,       3840,       3840,      240,      960, 03f85b35c6298501cc238da874c3eaaa
0,       4080,       4080,      240,      960, d449eec4faec41814e11cf686e067fdb
0,       4320,       4320,      240,      960, 96a87bf8dbba1da8c6d7d9eca10b2c36
0,       4560,       4560,      240,      960, 108bfde8e06c821f8bb549361ef62652
0,       4800,       4800,      240,      960, b1468db7d118e4a01c56507cd1d5e54e
0,       5040,       5040,      240,      960, 090b28728f18cfc8874bca273d0be9c5
0,       5280,       5280,      240,      960, e00e77848a55838025955b0ef76d7ffb
0,       5520,       5520,      240,      960, 65defb3963fc2c6e85f595a1b7422d23
0,       5760,       5760,      240,      960, 617156a65487876cb84ca201c71bc770
0,       6000,       6000,      240,      960, a14d87826b4f59bb60315dc9d2f33b44
0,       6240,       6240,      240,      960, 8311b12e8cbdf323053f5dfcc847f958
0,       6480,       6480,      240,      960, b6cf9a5bfe3c07e1409aba58ad3f1742
0,       6720,       6720,      240,      960, 204f42d4316edad1607a473755ef8032
0,       6960,       6960,      240,      960, 719da29661ee187dc34d0ffb5fc50c58
0,       7200,       7200,      240,      960, 60c6f28e2a110f821eae50dacfab24d2
0,       7440,       7440,      240,      960, 574456d6f5b53add918c9f8b84318ac7
0,       7680,       7680,      240,      960, cc46ac78d66fafe16cefbaec6d091b27
0,       7920,       7920,      240,      960, 88ce0bde9aff9b9dd85fb67bf1373dad
0,       8160,       8160,      240,      960, 5ff44b90b7288687054682a4d2b6ef56
0,       8400,       8400,      240,      960, e12c05533f1f9718dd97832903abece3
0,       8640,       8640,      240,      960, b90d7f5cd0256a267ab12bff23805ca0
0,       8880,       8880,      240,      960, b9df7b0463c541a4fd2b0d68463c7c78
0,       9120,       9120,      240,      960, 68317d9d186c227d8ca71d761c215f42
0,       9360,       9360,      240,      960, 7e070fa1b33d523ac61d16042c1ab1ba
0,       9600,       9600,      240,      960, 41468fbad853342e73936938a906448f
0,       9840,       9840,      240,      960, ce2dccea97251f3b777401a1ba761c8b
0,      10080,      10080,      240,      960, 69fa1bcd18b50c5c279c3a5038e51ca2
0,      10320,      10320,      240,      960, 9bc0201da54b3baa2921b584be6ecbf9
0,      10560,      10560,      240,      960, fdd97a1ee4d81c3b795fa491df45309d
0,      10800,      10800,      240,      960, c2ea58b3342f283e06b6e813efb628b5
0,      11040,      11040,      240,      960, 8d895dc807aa09899094d4826a26e899
0,      11280,      11280,      240,      960, 733cb1dab0c5792a060fe176d112a31a
0,      11520,      11520,      240,      960, 6784f3bd831541f0c5ba3a8d18c6023b
0,      11760,      11760,      240,      960, 5535e900010fb4c1ad563301f73186ea
0,      12000,      12000,      240,      960, 36d7a2fa1d9b8b522f623bf2c1d59752
0,      12240,      12240,      240,      960, 13b150656c0f4d6136e3628b13c73ac3
0,      12480,      12480,      240,      960, 02b4c4be714cf14a6b22d863608f6a39
0,      12720,      12720,      240,      960, 3ff2944e6ae26b20d5ca9f1bb37221e2
0,      12960,      12960,      240,      960, 05b349b0d104b6ed765f711a2fb8e3a7
0,      13200,      13200,      240,      960, 4d3e407beb677befb7d6592888e712ba
0,      13440,      13440,      240,      960, 74ccab43b0436154d2ef3a2c4914146e
0,      13680,      13680,      240,      960, 6164f38ab9f1477aa3d35dc773f3d2d3
0,      13920,      13920,      240,      960, c807122a78bda17adf34f88f9fad4f63
0,      14160,      14160,      240,      960, 023f02898eb4af909ff5cea66fd6cbe1
0,      14400,      14400,      240,      960, 65cf8e083a1c371fa9ddeba9f680606c
0,      14640,      14640,      240,      960, fdd11a9b3046264241fa2fdf430573b9
0,      14880,      14880,      240,      960, b598713ee8ef8f19948f0ddeed7fa5ca
0,      15120,      15120,      240,      960, c85c047ec4e588ba74aa495aaf05a556
0,      15360,      15360,      240,      960, 8c9fef66c10cad82bc3b38e1c454487b
0,      15600,      15600,      240,      960, 98c1410d3b627d9fe0abe30b8b7dc0d7
0,      15840,      15840,      240,      960, 17c43606c51c515db6b16359e6762dcd
0,      16080,      16080,      240,      960, 897cbaeb4d58cdc907ac703e5847db01
0,      16320,      16320,      240,      960, cb6914c35f4493cbda0638bc89a4b446
0,      16560,      16560,      240,      960, e032b562c00e0a70d6da3768f7f76628
0,      16800,      16800,      240,      960, 7e800b651f0e00386cf39eab6326e660
0,      17040,      17040,      240,      960, 949c68f5475ff6e373b38b6d3c94fd1f
0,      17280,      17280,      240,      960, dcc77a698268f503bb02dffd8990f583
0,      17520,      17520,      240,      960, 0df18195828974347a55b6c8bc98306f
0,      17760,      17760,      240,      960, 7ca9782193ec07f8deb894252996ec03
0,      18000,      18000,      240,      960, db04e0dce5be61fd9303dab730f3a9d5
0,      18240,      18240,      240,      960, 5fa26707445dd9af9392c0ab2e721581
0,      18480,      18480,      240,      960, e26f47b2f83db65336b3b9868579cfd6
0,      18720,      18720,      240,      960, d885eb78ae88111cc0f18112ae8e990e
0,      18960,      18960,      240,      960, 6bb6e174a2a3d88681f161cfbb275d4d
0,      19200,      19200,      240,      960, 7c8a60b34105dfb552b621c1535e57a9
0,      19440,      19440,      240,      960, 3a53dfd2bfed21b36ab49c3bfe36d112
0,      19680,      19680,      240,      960, dc4f88d798e8c4423e472870d99e2dd7
0,      19920,      19920,      240,      960, a0394484aeb02cab71b0bc68d6956a19
0,      20160,      20160,      240,      960, 3783c1fe09de46e05c7d26a6294044da
0,      20400,      20400,      240,      960, b07e75b6d7d563ca0f2fcf59f636cbca
0,      20640,      20640,      240,      960, a05c5a87da201d8c6ed93294d42bd85b
0,      20880,      20880,      240,      960, 9ff18803f71d21002d62b18434cb37d3
0,      21120,      21120,      240,      960, 1d827e6e5ebfa85f1bc519bbcaf5227b
0,      21360,      21360,      240,      960, ab773fc0e122ce0d2729d66a5fcf5a07
0,      21600,      21600,      240,      960, 2794fc7f866860f6f16a03b25c5a2553
0,      21840,      21840,      240,      960, 41e5f25db7b23315b74461bc6f4f339d
0,      22080,      22080,      240,      960, f7779e87c56d5b49fe4be973b4ffb7b6
0,      22320,      22320,      240,      960, 204bef5cb64a5910525054a8fc6cfc00
0,      22560,      22560,      240,      960, 5aa4e602b5a6cda12b40dd447528ec38
0,      22800,      22800,      240,      960, 0b4039bf116650afd19d3ff4f2c739b5
0,      23040,      23040,      240,      960, 062d30d9b28cf88bdb7b0376d83985e2
0,      23280,      23280,      240,      960, cae93c409babdefe9de35301ada16439
0,      23520,      23520,      240,      960, 4e3da03080eeda1aeab3cd337e3bf4a4
0,      23760,      23760,      240,      960, d335e81abf77b32a4f4194327a86c8d3
